<svg version="1.1" id="Capa_1" xmlns="http://www.w3.org/2000/svg"  x="0px" y="0px"
	 viewBox="0 0 507.8 489.6" style="enable-background:new 0 0 507.8 489.6;" xml:space="preserve">
<style type="text/css">
	.st0{fill:#F6F6F6;}
	.st1{opacity:0.86;fill:#263839;enable-background:new    ;}
	.st2{fill:#263839;}
	.st3{fill:#5A7474;}
	.st4{fill:#547574;}
	.st5{fill:none;}
	.st6{fill:#FFFFFF;}
	.st7{font-family:'LibreBaskerville-Regular';}
	.st8{font-size:76.15px;}
	.st9{letter-spacing:6;}
	.st10{letter-spacing:1;}
	.st11{letter-spacing:3;}
</style>
<title>ThisWay-Logo</title>
<path class="st0" d="M484.9,480.1H23.6c-6.6,0-12-5.4-12-12V21.5c0-6.6,5.4-12,12-12h461.3c6.6,0,12,5.4,12,12v446.7
	C496.9,474.8,491.5,480.1,484.9,480.1z"/>
<path class="st1" d="M252.1,72.9c6.9,0,13.7,0.3,20.5,0.9V480h-21.8c-6.9,0-12.4-12.5-19.1-13.1V73.9
	C238.3,73.2,245.1,72.9,252.1,72.9z"/>
<path class="st2" d="M272.9,228.9c-12.2,0-22.5,23.1-22.5,34.6v87.2h22.1v25.6l0,0c-12.2,0-22.1,14.6-22.1,26.1l0.3,77.8h-19.1V73.9
	c6.2-0.6,12.5-0.9,18.8-0.9l0.4,155.9l21.7-1.6l0,0L272.9,228.9z"/>
<path class="st3" d="M104.1,370l-34.6-46.5c-2-2.8-2-6.5,0-9.3l34.6-46.6c1.5-2,3.8-3.1,6.2-3.1h281.6c4.3,0,7.8,3.5,7.8,7.8v93.1
	c0,4.3-3.5,7.8-7.8,7.8H110.3C107.8,373.2,105.5,372,104.1,370z"/>
<path class="st4" d="M400.7,261.5H103.5c-2.6,0-5,1.2-6.6,3.3L60.4,314c-2.2,2.9-2.2,6.9,0,9.8l36.5,49.1c1.5,2.1,4,3.3,6.6,3.3
	h297.2c4.5,0,8.2-3.7,8.2-8.2v-98.3C408.8,265.2,405.2,261.6,400.7,261.5z M392.5,359.8H107.6l-30.4-40.9l30.4-40.9h284.9V359.8z"/>
<path class="st3" d="M407.1,225.6H126.9c-4.3,0-7.7-3.4-7.7-7.7v-92.6c0-4.3,3.4-7.7,7.7-7.7h280.2c2.4,0,4.7,1.2,6.2,3.1l34.4,46.3
	c2,2.7,2,6.5,0,9.2l-34.4,46.3C411.8,224.4,409.5,225.5,407.1,225.6z"/>
<path class="st4" d="M457.6,166.7l-36.5-49.1c-1.5-2.1-4-3.3-6.6-3.3H117.3c-4.5,0-8.2,3.7-8.2,8.2v98.3c0,4.5,3.7,8.2,8.2,8.2
	h297.2c2.6,0,5-1.2,6.6-3.3l36.5-49.1C459.8,173.6,459.8,169.6,457.6,166.7z M410.4,130.6l30.4,40.9l-30.4,40.9H125.5v-81.9"/>
<rect x="153.8" y="139.8" class="st5" width="241" height="78.4"/>
<text transform="matrix(1 0 0 1 153.8 203.02)" class="st6 st7 st8 st9">THIS</text>
<rect x="137.5" y="287.7" class="st5" width="281.9" height="78.4"/>
<text transform="matrix(1 0 0 1 137.46 350.84)" class="st6 st7 st8 st10">W</text>
<text transform="matrix(1 0 0 1 228.46 350.84)" class="st6 st7 st8 st10">A</text>
<text transform="matrix(1 0 0 1 288.85 350.84)" class="st6 st7 st8 st11">Y</text>
</svg>
