<svg xmlns="http://www.w3.org/2000/svg" viewBox="8080 3597 55.568 61">
    <defs>
        <style>
            .cls-1 {
            fill: #fff;
            }
        </style>
    </defs>
    <path id="music-player" class="cls-1"
          d="M57.635.277a1.125,1.125,0,0,0-.877-.268L22.305,4.467a1.112,1.112,0,0,0-.969,1.1v40.3A11.03,11.03,0,0,0,13,42.232c-5.831,0-10.558,4.2-10.558,9.384S7.171,61,13,61,23.56,56.8,23.56,51.616a8.433,8.433,0,0,0-.077-1.09,1.089,1.089,0,0,0,.077-.381V17.913l32.23-4.171V34.757a11.038,11.038,0,0,0-8.335-3.639c-5.831,0-10.558,4.2-10.558,9.384s4.727,9.384,10.558,9.384,10.558-4.2,10.558-9.384c0-.1-.013-.2-.017-.3,0-.03.017-.056.017-.086v-39A1.109,1.109,0,0,0,57.635.277Z"
          transform="translate(8077.556 3596.999)"/>
</svg>
