<svg xmlns="http://www.w3.org/2000/svg" viewBox="7908.5 3600.5 61 61">
    <defs>
        <style>
            .cls-1 {
            fill: #fff;
            stroke: #fff;
            }
        </style>
    </defs>
    <g id="stopwatch" transform="translate(7909 3601)">
        <path id="Path_39" data-name="Path 39" class="cls-1"
              d="M30,0a1,1,0,0,0-1,1V14.292a1,1,0,1,0,2,0V2.018a28,28,0,1,1-20.834,8.218A1,1,0,0,0,8.75,8.824,30,30,0,1,0,30,0Z"/>
        <path id="Path_40" data-name="Path 40" class="cls-1"
              d="M28.555,33.532a3.555,3.555,0,0,0,2.6,1.457c.093.008.186.011.278.011a3.563,3.563,0,0,0,2.093-6.447L20.586,19.19a1,1,0,0,0-1.4,1.4Zm3.8-3.36a1.564,1.564,0,1,1-2.182,2.187l-5.713-7.9Z"/>
    </g>
</svg>
