<svg xmlns="http://www.w3.org/2000/svg" viewBox="8075 3751 58 59">
    <defs>
        <style>
            .cls-1 {
            fill: #fff;
            }
        </style>
    </defs>
    <g id="route" transform="translate(8074.5 3751)">
        <path id="Path_36" data-name="Path 36" class="cls-1"
              d="M45.07,59a1,1,0,0,1,0-2H47a1.029,1.029,0,0,1,1.035,1,.97.97,0,0,1-.965,1V58l-.029,1Zm-4,0h-2a1,1,0,0,1,0-2h2a1,1,0,0,1,0,2Zm-6,0h-2a1,1,0,0,1,0-2h2a1,1,0,0,1,0,2Zm-6,0h-2a1,1,0,0,1,0-2h2a1,1,0,0,1,0,2Zm-6,0h-2a1,1,0,0,1,0-2h2a1,1,0,0,1,0,2Zm-6,0h-2a1,1,0,1,1,0-2h2a1,1,0,0,1,0,2Zm33.467-1.718a1,1,0,0,1-.785-1.618,3.469,3.469,0,0,0,.663-1.392,1,1,0,1,1,1.951.439A5.5,5.5,0,0,1,51.324,56.9,1,1,0,0,1,50.537,57.282Zm0-5.563a1,1,0,0,1-.787-.382,3.531,3.531,0,0,0-1.2-.974,1,1,0,0,1,.891-1.791A5.555,5.555,0,0,1,51.324,50.1a1,1,0,0,1-.786,1.619ZM45.071,50h-2a1,1,0,0,1,0-2h2a1,1,0,0,1,0,2Zm-6,0h-2a1,1,0,0,1,0-2h2a1,1,0,0,1,0,2Zm-5.942-.406a.991.991,0,0,1-.415-.091,5.556,5.556,0,0,1-1.927-1.467,1,1,0,1,1,1.531-1.287,3.55,3.55,0,0,0,1.228.936,1,1,0,0,1-.417,1.909ZM30.58,44.65a1,1,0,0,1-.983-1.189,5.453,5.453,0,0,1,.973-2.222,1,1,0,1,1,1.611,1.185,3.447,3.447,0,0,0-.619,1.413A1,1,0,0,1,30.58,44.65Zm4.2-3.645a1,1,0,0,1-.04-2c.085,0,.17-.006.256-.006h1.785a1,1,0,0,1,0,2l-1.959,0ZM53,41h-.215a1,1,0,0,1,0-2H53a3.472,3.472,0,0,0,1.352-.271,1,1,0,1,1,.774,1.844A5.469,5.469,0,0,1,53,41Zm-4.215,0h-2a1,1,0,0,1,0-2h2a1,1,0,0,1,0,2Zm-6,0h-2a1,1,0,0,1,0-2h2a1,1,0,0,1,0,2Zm14.533-3.23a1,1,0,0,1-.96-1.281A3.5,3.5,0,0,0,56.5,35.5a3.3,3.3,0,0,0-.042-.552,1,1,0,1,1,1.975-.317,5.316,5.316,0,0,1,.067.876,5.473,5.473,0,0,1-.222,1.543A1,1,0,0,1,57.318,37.77ZM55.25,32.6a.993.993,0,0,1-.5-.135,3.438,3.438,0,0,0-1.47-.458,1,1,0,0,1,.156-1.994,5.42,5.42,0,0,1,2.317.722,1,1,0,0,1-.5,1.865ZM49.357,32h-2a1,1,0,1,1,0-2h2a1,1,0,0,1,0,2Zm-6,0h-2a1,1,0,1,1,0-2h2a1,1,0,0,1,0,2Zm-6,0h-2a1,1,0,1,1,0-2h2a1,1,0,0,1,0,2Zm-6,0H31a5.521,5.521,0,0,1-1.963-.361,1,1,0,0,1,.713-1.869A3.517,3.517,0,0,0,31,30h.355a1,1,0,1,1,0,2Zm-4.633-3.095a1,1,0,0,1-.95-.688A5.475,5.475,0,0,1,25.5,26.5a5.809,5.809,0,0,1,.044-.694,1,1,0,0,1,1.984.25,3.707,3.707,0,0,0-.028.449,3.494,3.494,0,0,0,.174,1.088,1,1,0,0,1-.638,1.263A.98.98,0,0,1,26.724,28.905Zm1.9-5.229a1,1,0,0,1-.531-1.849,5.423,5.423,0,0,1,2.294-.794,1,1,0,1,1,.219,1.989,3.451,3.451,0,0,0-1.454.5A1,1,0,0,1,28.628,23.676ZM42.5,23h-2a1,1,0,0,1,0-2h2a1,1,0,0,1,0,2Zm-6,0h-2a1,1,0,0,1,0-2h2a1,1,0,0,1,0,2Z"/>
        <path id="Path_37" data-name="Path 37" class="cls-1"
              d="M53.47,2.669h0a7.456,7.456,0,0,0-11.433,0h0a9.951,9.951,0,0,0,0,12.887L47.753,22l5.716-6.444A9.95,9.95,0,0,0,53.47,2.669ZM48,13a4.5,4.5,0,1,1,4.5-4.5A4.5,4.5,0,0,1,48,13Z"/>
        <path id="Path_38" data-name="Path 38" class="cls-1"
              d="M19.278,28.64a10.131,10.131,0,0,0-15.556,0h0a13.592,13.592,0,0,0,0,17.573L11.5,55l7.778-8.787A13.592,13.592,0,0,0,19.278,28.64ZM11.5,41a5,5,0,1,1,5-5A5,5,0,0,1,11.5,41Z"/>
    </g>
</svg>
